<?xml version="1.0" standalone="no"?>
<!DOCTYPE svg PUBLIC "-//W3C//DTD SVG 20010904//EN"
 "http://www.w3.org/TR/2001/REC-SVG-20010904/DTD/svg10.dtd">
<svg version="1.0" xmlns="http://www.w3.org/2000/svg"
 width="1616.000000pt" height="1616.000000pt" viewBox="0 0 1616.000000 1616.000000"
 preserveAspectRatio="xMidYMid meet">
<metadata>
Created by potrace 1.14, written by Peter Selinger 2001-2017
</metadata>
<g transform="translate(0.000000,1616.000000) scale(0.100000,-0.100000)"
fill="#000000" stroke="none">
<path d="M7947 11224 c-1 -1 -38 -5 -81 -9 -43 -4 -87 -8 -96 -10 -10 -2 -35
-6 -56 -10 -40 -7 -65 -12 -74 -15 -3 -1 -9 -3 -15 -4 -93 -18 -333 -117 -430
-178 -82 -52 -285 -225 -285 -243 0 -2 -11 -16 -25 -31 -63 -67 -184 -286
-176 -318 1 -5 -2 -12 -6 -15 -7 -5 -24 -59 -39 -126 -23 -100 -22 -418 2
-456 2 -3 6 -19 8 -35 10 -52 15 -68 34 -119 22 -58 63 -148 71 -155 3 -3 17
-25 30 -50 13 -25 32 -54 42 -66 11 -11 19 -24 19 -28 0 -4 9 -16 20 -28 11
-12 20 -25 20 -28 0 -4 -21 -24 -47 -46 -49 -39 -192 -180 -228 -225 -43 -53
-95 -127 -95 -137 0 -6 -3 -12 -7 -14 -8 -3 -68 -117 -68 -128 0 -3 -3 -10 -7
-15 -9 -15 -55 -183 -62 -227 -12 -76 -20 -175 -19 -238 1 -118 24 -306 42
-335 3 -5 7 -19 8 -30 9 -62 80 -207 146 -300 47 -64 192 -215 208 -215 4 0
14 -6 21 -12 61 -57 280 -168 413 -210 69 -21 159 -44 210 -53 143 -24 167
-27 239 -31 39 -2 86 -5 103 -7 18 -2 35 2 37 7 3 8 5 8 5 0 1 -5 16 -9 34 -7
17 1 73 5 122 8 110 6 176 14 233 26 23 5 57 11 75 13 45 6 110 22 192 46 39
12 77 23 85 25 40 9 196 69 201 77 11 17 18 14 66 -34 45 -43 143 -107 143
-92 0 4 6 2 13 -3 6 -6 30 -14 52 -18 45 -8 212 -8 226 1 5 3 9 2 9 -3 0 -4
11 -8 25 -8 14 0 25 3 25 7 0 4 10 4 23 -1 12 -5 32 -5 45 0 13 5 21 5 18 1
-2 -4 20 -5 50 -2 31 3 54 2 54 -3 0 -5 6 -4 13 2 8 6 16 8 20 5 7 -7 117 -11
117 -4 0 7 76 3 89 -4 5 -4 12 -2 16 4 4 6 11 8 16 4 13 -8 165 -8 178 0 5 4
12 2 16 -4 4 -6 10 -8 15 -5 5 3 29 7 52 9 24 2 56 8 71 15 16 6 31 11 34 11
3 0 26 17 51 37 40 33 82 89 89 118 1 5 7 27 12 49 5 21 8 56 6 77 -4 46 -26
109 -37 109 -4 0 -8 5 -8 11 0 17 -53 78 -271 313 -180 194 -168 168 -109 236
34 40 29 33 95 120 28 36 53 67 58 68 4 2 7 10 7 17 0 8 8 22 18 32 20 19 129
188 155 238 42 83 41 192 -4 280 -40 78 -77 107 -264 209 -11 6 -22 13 -25 16
-3 3 -21 14 -40 25 -19 10 -57 32 -85 47 -27 16 -58 31 -67 34 -10 4 -18 10
-18 15 0 5 -4 9 -10 9 -5 0 -39 18 -75 40 -36 22 -68 40 -71 40 -3 0 -18 8
-32 19 -30 20 -123 57 -134 53 -13 -3 -9 11 11 48 22 41 71 174 77 210 3 14 7
33 10 42 39 129 38 404 -1 582 -3 16 -8 33 -11 38 -3 4 -7 18 -9 30 -7 35 -68
183 -77 186 -4 2 -8 10 -8 17 0 28 -133 209 -208 283 -83 83 -114 109 -177
150 -22 15 -42 29 -45 32 -18 18 -222 120 -230 115 -4 -3 -10 -2 -12 3 -3 7
-108 49 -146 57 -9 2 -32 8 -50 14 -18 5 -35 10 -37 10 -3 0 -18 2 -33 5 -15
4 -37 9 -49 11 -13 3 -31 7 -42 9 -50 11 -384 28 -394 20z"/>
<path d="M3587 11184 c-1 -1 -21 -4 -43 -7 -46 -7 -124 -37 -124 -49 0 -5 -5
-8 -11 -8 -14 0 -76 -69 -93 -105 -28 -59 -90 -242 -91 -270 0 -5 -3 -14 -7
-20 -5 -8 -30 -88 -32 -105 -1 -3 -6 -18 -12 -35 -7 -16 -30 -88 -52 -160 -22
-71 -59 -188 -82 -260 -23 -71 -43 -137 -45 -145 -2 -8 -8 -27 -14 -42 -6 -16
-8 -28 -5 -28 4 0 1 -6 -5 -13 -6 -8 -13 -24 -15 -38 -3 -13 -5 -24 -6 -24 -1
0 -3 -7 -5 -15 -2 -8 -24 -80 -50 -160 -26 -80 -48 -152 -50 -160 -2 -8 -4
-16 -5 -17 -2 -2 -3 -6 -4 -10 -1 -5 -5 -14 -9 -20 -5 -7 -6 -13 -2 -13 3 0
-1 -13 -10 -30 -9 -16 -13 -30 -11 -30 3 0 -2 -19 -10 -42 -9 -24 -17 -50 -19
-58 -2 -8 -4 -15 -5 -15 -1 0 -3 -7 -5 -15 -2 -8 -10 -35 -18 -60 -8 -25 -29
-92 -47 -150 -18 -58 -37 -111 -43 -117 -5 -7 -7 -13 -4 -13 6 0 -17 -85 -35
-129 -6 -14 -13 -35 -15 -46 -2 -11 -12 -45 -22 -75 -25 -71 -102 -318 -101
-325 0 -3 -9 -29 -19 -57 -10 -29 -24 -73 -31 -98 -8 -25 -16 -49 -19 -55 -3
-5 -6 -15 -7 -22 -1 -7 -19 -65 -40 -130 -21 -65 -39 -120 -39 -123 -5 -21
-38 -129 -45 -145 -5 -11 -25 -74 -46 -140 -45 -147 -50 -227 -21 -299 23 -56
117 -156 146 -156 10 0 21 -3 25 -7 9 -9 30 -14 91 -19 28 -2 65 -5 83 -7 17
-2 32 0 32 5 0 4 10 4 23 -1 12 -5 32 -5 45 0 13 5 21 5 18 1 -2 -4 20 -5 50
-2 31 3 54 2 54 -3 0 -5 6 -4 13 2 8 6 16 8 20 5 7 -7 117 -11 117 -4 0 7 76
3 89 -4 5 -4 12 -2 16 4 4 6 11 8 16 4 13 -8 165 -8 178 0 5 4 12 2 16 -4 4
-7 12 -7 24 0 10 5 21 7 24 3 5 -5 83 -7 97 -3 3 1 23 3 45 6 39 4 107 29 133
49 35 27 84 81 99 109 13 24 69 200 87 271 14 56 -20 52 396 51 l379 0 32
-115 c49 -180 79 -245 134 -293 35 -30 127 -70 166 -72 21 -1 41 -5 44 -8 3
-3 20 -2 38 2 18 4 41 4 52 0 11 -4 27 -4 35 0 8 4 24 4 35 0 11 -4 34 -4 51
0 18 4 38 4 45 -1 7 -4 20 -4 30 1 9 5 19 7 22 4 7 -7 117 -11 117 -4 0 5 40
4 108 -3 17 -2 32 0 32 5 0 4 10 4 23 -1 12 -5 32 -5 45 0 13 5 21 5 18 1 -2
-4 20 -5 50 -2 31 3 54 2 54 -3 0 -5 6 -4 13 2 8 6 17 8 20 5 5 -6 84 -9 97
-4 3 1 23 3 45 5 22 1 40 3 40 5 0 1 10 3 22 6 32 6 95 44 127 78 29 31 67
104 73 141 12 69 -12 203 -56 310 -5 11 -19 56 -32 100 -12 44 -27 86 -32 93
-5 6 -7 12 -3 12 3 0 0 16 -8 35 -9 20 -15 39 -16 43 0 4 -14 52 -31 106 -17
54 -32 104 -34 110 -1 6 -7 24 -14 40 -6 16 -13 38 -16 50 -2 11 -4 22 -6 24
-1 1 -3 7 -4 12 -1 6 -4 12 -5 15 -1 3 -3 8 -4 13 -3 12 -66 214 -80 257 -22
66 -52 162 -101 320 -26 83 -51 162 -57 177 -5 15 -10 31 -10 35 -1 4 -11 37
-23 73 -12 36 -23 70 -25 75 -1 6 -4 15 -6 20 -15 45 -46 148 -48 158 -2 6 -6
19 -9 27 -11 25 -58 181 -63 204 -2 11 -8 30 -13 41 -12 25 -35 107 -33 118 1
4 -3 7 -9 7 -6 0 -9 6 -6 14 3 8 3 17 -1 21 -4 4 -7 10 -8 13 0 4 -4 14 -7 22
-5 11 -73 232 -91 295 -2 6 -6 17 -9 25 -18 50 -67 212 -67 225 0 8 -4 15 -8
15 -4 0 -8 9 -9 21 -1 11 -10 44 -20 72 -9 29 -18 55 -19 60 -1 4 -2 8 -4 10
-1 1 -3 9 -5 17 -4 19 -54 180 -62 200 -3 8 -7 21 -9 28 -1 7 -15 47 -30 88
-41 114 -128 196 -234 219 -27 7 -1176 14 -1183 9z m583 -2345 c0 -12 -8 -16
-29 -15 -24 1 -28 4 -21 21 4 11 8 23 9 28 0 4 4 19 7 33 7 26 7 25 20 -12 8
-22 14 -46 14 -55z"/>
<path d="M12638 11177 c-18 -5 -41 -8 -50 -8 -9 0 -22 -7 -28 -15 -7 -7 -16
-12 -20 -9 -15 9 -110 -95 -133 -147 -29 -64 -27 25 -30 -1458 l-2 -1055 -23
-33 c-40 -55 -87 -70 -208 -64 -40 3 -90 51 -100 100 -4 20 -8 116 -10 212 -1
96 -3 177 -4 180 -1 3 -2 9 -1 13 1 4 -10 32 -24 61 -32 68 -87 122 -155 154
l-55 26 -480 0 -480 1 -58 -28 c-74 -36 -148 -113 -162 -167 -1 -3 -6 -14 -11
-25 -17 -37 -9 -564 10 -645 3 -14 8 -38 11 -55 4 -16 7 -34 9 -40 2 -5 6 -23
10 -40 25 -98 130 -345 156 -365 3 -3 23 -30 43 -60 71 -107 233 -275 304
-313 10 -6 20 -13 23 -17 3 -3 19 -15 35 -27 27 -18 57 -36 160 -93 43 -24
210 -90 227 -90 8 0 18 -3 22 -7 3 -4 12 -8 19 -9 7 -1 44 -10 82 -19 73 -18
85 -21 150 -30 88 -13 162 -21 193 -20 17 0 32 -2 32 -5 0 -6 116 -4 135 4 8
3 17 1 20 -5 4 -5 10 -7 15 -4 5 3 46 8 92 10 46 3 123 12 173 20 49 8 91 12
94 10 2 -3 9 -1 15 4 7 6 23 12 36 15 49 9 136 34 172 49 20 8 39 13 42 9 3
-3 6 0 6 6 0 7 3 11 8 10 10 -4 164 64 180 79 7 7 20 13 28 13 8 0 14 5 14 10
0 6 5 10 12 10 6 0 26 11 44 25 18 14 38 25 44 25 6 0 13 7 16 15 4 8 11 15
18 15 12 0 35 19 132 111 107 100 189 206 257 329 23 41 42 77 43 80 0 3 8 23
18 45 34 79 78 231 90 310 2 17 5 30 6 30 9 0 11 241 14 1340 3 1199 2 1263
-15 1321 -33 107 -123 190 -229 210 -51 10 -893 10 -932 1z"/>
<path d="M27 6482 l-27 -3 0 -1240 0 -1239 28 2 c15 1 32 -1 38 -4 5 -4 16 -3
24 2 8 5 21 5 30 0 9 -5 22 -5 30 0 8 5 21 5 30 0 9 -5 22 -5 30 0 8 5 21 5
30 0 9 -5 22 -5 30 0 8 5 21 5 30 0 9 -5 22 -5 30 0 8 5 21 5 30 0 9 -5 22 -5
30 0 8 5 21 5 30 0 9 -5 22 -5 30 0 8 5 21 5 30 0 9 -5 22 -5 30 0 8 5 21 5
30 0 9 -5 22 -5 30 0 8 5 21 5 30 0 9 -5 22 -5 30 0 8 5 21 5 30 0 9 -5 22 -5
30 0 7 4 24 4 36 0 14 -6 26 -5 29 0 3 6 15 6 30 0 15 -6 27 -6 30 0 3 6 15 6
30 0 15 -6 27 -6 30 0 3 6 15 6 29 0 13 -5 27 -6 30 -3 8 8 76 9 76 1 0 -4 14
-3 30 2 17 5 30 6 30 2 0 -4 29 -7 65 -7 36 0 65 3 65 7 0 4 12 3 28 -1 15 -4
43 -4 62 -1 19 3 42 3 51 -1 8 -4 21 -4 29 1 8 5 21 5 30 0 9 -5 22 -5 30 0 8
5 21 5 30 0 9 -5 22 -5 30 0 8 5 21 5 30 0 9 -5 22 -5 30 0 8 5 21 5 30 0 9
-5 22 -5 30 0 8 5 21 5 30 0 9 -5 22 -5 30 0 8 5 21 5 30 0 9 -5 22 -5 30 0 8
5 21 5 30 0 9 -5 22 -5 30 0 8 5 21 5 30 0 9 -5 22 -5 30 0 8 5 21 5 30 0 9
-5 22 -5 30 0 8 5 21 5 30 0 9 -5 22 -5 30 0 7 4 24 4 36 0 14 -6 26 -5 29 0
3 6 15 6 30 0 15 -6 27 -6 30 0 3 6 15 6 30 0 15 -6 27 -6 30 0 3 6 15 6 29 0
13 -5 27 -6 30 -3 8 8 76 9 76 1 0 -4 14 -3 30 2 17 5 30 6 30 2 0 -4 29 -7
65 -7 36 0 65 3 65 7 0 4 12 3 28 -1 15 -4 38 -5 52 -1 14 4 35 3 47 -1 12 -5
25 -4 28 1 3 6 15 6 29 0 13 -5 27 -6 30 -3 8 8 76 9 76 1 0 -4 13 -3 30 2 17
5 30 5 30 0 0 -5 13 -5 30 0 17 5 30 5 30 0 0 -5 13 -5 30 0 17 5 30 5 30 0 0
-5 13 -5 30 0 17 5 30 5 30 0 0 -5 13 -5 30 0 17 5 30 6 30 2 0 -4 19 -6 42
-4 24 1 49 3 56 2 6 0 19 0 27 0 8 0 22 0 30 0 8 0 22 0 30 0 8 0 22 0 30 0 8
0 22 0 30 0 8 0 22 0 30 0 8 0 22 0 30 0 8 0 22 0 30 0 8 0 22 0 30 0 8 0 22
0 30 0 8 0 22 0 30 0 8 0 22 0 30 0 8 0 22 0 30 0 8 0 22 0 30 0 8 0 22 0 30
0 8 0 22 0 30 0 8 0 22 0 30 0 8 0 22 0 30 0 8 0 22 0 30 0 8 0 22 0 30 0 8 0
37 0 64 -1 27 -1 53 1 58 4 5 3 15 2 23 -3 7 -4 23 -4 36 0 12 5 25 6 28 3 8
-8 76 -9 76 -1 0 4 13 3 30 -2 16 -5 32 -5 35 0 3 4 20 4 39 0 18 -4 40 -4 48
1 7 4 20 4 28 -1 7 -4 23 -4 36 0 12 5 25 6 28 3 8 -8 76 -9 76 -1 0 4 13 3
29 -2 16 -4 32 -6 35 -3 7 8 95 7 102 0 3 -3 17 -2 30 3 14 6 26 6 29 0 3 -5
15 -6 28 -1 12 5 34 5 49 0 16 -4 28 -4 28 1 0 5 13 5 30 0 17 -5 30 -5 30 0
0 5 13 5 30 0 17 -5 30 -5 30 0 0 5 13 5 30 0 17 -5 30 -5 30 0 0 5 13 5 30 0
17 -5 30 -5 30 0 0 5 13 5 30 0 17 -5 30 -5 30 0 0 5 13 5 30 0 17 -5 30 -5
30 0 0 5 13 5 30 0 17 -5 30 -5 30 0 0 5 13 5 30 0 17 -5 30 -5 30 0 0 5 13 5
30 0 17 -5 30 -5 30 0 0 5 13 5 30 0 17 -5 30 -5 30 0 0 5 13 5 30 0 17 -5 30
-5 30 0 0 5 13 5 30 0 17 -5 30 -5 30 0 0 5 13 5 30 0 17 -5 30 -5 30 0 0 5
13 5 30 0 17 -5 30 -5 30 0 0 5 13 5 30 0 17 -5 32 -5 35 0 3 5 15 6 29 0 12
-4 29 -4 36 0 8 5 18 6 23 3 12 -7 102 -7 114 0 5 3 15 2 23 -3 7 -4 23 -4 36
0 12 5 25 6 28 3 8 -8 76 -9 76 -1 0 4 13 3 30 -2 16 -5 32 -5 35 0 3 4 20 4
39 0 18 -4 40 -4 48 1 7 4 20 4 28 -1 7 -4 23 -4 36 0 12 5 25 6 28 3 8 -8 76
-9 76 -1 0 4 13 3 29 -2 16 -4 32 -5 36 -2 7 7 91 6 104 -2 5 -4 12 -2 16 3 3
7 15 7 29 1 13 -5 27 -6 30 -3 8 8 76 9 76 1 0 -4 14 -3 30 2 17 5 30 5 30 0
0 -5 13 -5 30 0 17 5 30 5 30 0 0 -5 13 -5 30 0 17 5 30 5 30 0 0 -5 13 -5 30
0 17 5 30 5 30 0 0 -5 13 -5 30 0 17 5 30 6 30 2 0 -8 74 -7 87 1 5 3 15 2 23
-3 8 -5 21 -5 30 0 9 5 22 5 30 0 8 -5 21 -5 30 0 9 5 22 5 30 0 8 -5 21 -5
30 0 9 5 22 5 30 0 8 -5 21 -5 30 0 9 5 22 5 30 0 8 -5 21 -5 30 0 9 5 22 5
30 0 8 -5 21 -5 30 0 9 5 22 5 30 0 8 -5 21 -5 30 0 9 5 22 5 30 0 8 -5 21 -5
30 0 9 5 22 5 30 0 8 -5 21 -5 30 0 9 5 22 5 30 0 8 -5 21 -5 30 0 9 5 22 5
28 1 7 -4 35 -5 62 -1 27 4 55 3 62 -1 6 -4 19 -4 28 1 9 5 22 5 30 0 8 -5 21
-5 30 0 9 5 22 5 30 0 8 -5 21 -5 30 0 9 5 22 5 30 0 8 -5 21 -5 30 0 9 5 22
5 30 0 8 -5 21 -5 30 0 9 5 22 5 30 0 8 -5 21 -5 30 0 9 5 22 5 30 0 8 -5 21
-5 30 0 9 5 22 5 30 0 8 -5 21 -5 30 0 9 5 22 5 30 0 8 -5 21 -5 30 0 9 5 22
5 30 0 8 -5 21 -5 30 0 8 4 22 4 31 0 8 -5 21 -5 29 0 7 4 24 4 36 0 14 -6 26
-5 29 0 3 6 15 6 30 0 15 -6 27 -6 30 0 3 6 15 6 30 0 15 -6 27 -6 30 0 3 6
15 6 29 0 13 -5 27 -6 30 -3 8 8 76 9 76 1 0 -4 14 -3 30 2 17 5 30 6 30 2 0
-4 29 -7 65 -7 36 0 65 3 65 7 0 4 12 3 28 -1 15 -4 43 -4 62 -1 19 3 42 3 51
-1 8 -4 21 -4 29 1 8 5 21 5 30 0 9 -5 22 -5 30 0 8 5 21 5 30 0 9 -5 22 -5
30 0 8 5 21 5 30 0 9 -5 22 -5 30 0 8 5 21 5 30 0 9 -5 22 -5 30 0 8 5 21 5
30 0 9 -5 22 -5 30 0 8 5 21 5 30 0 9 -5 22 -5 30 0 8 5 21 5 30 0 9 -5 22 -5
30 0 8 5 21 5 30 0 9 -5 22 -5 30 0 8 5 21 5 30 0 9 -5 22 -5 30 0 8 5 21 5
30 0 9 -5 22 -5 30 0 7 4 24 4 36 0 14 -6 26 -5 29 0 3 6 15 6 30 0 15 -6 27
-6 30 0 3 6 15 6 30 0 15 -6 27 -6 30 0 3 6 15 6 29 0 13 -5 27 -6 30 -3 8 8
76 9 76 1 0 -4 14 -3 30 2 16 5 30 6 30 2 0 -4 29 -7 65 -7 36 0 65 3 65 7 0
4 12 3 28 -1 15 -4 43 -4 62 -1 19 3 42 3 51 -1 8 -4 21 -4 29 1 8 5 21 5 30
0 9 -5 22 -5 30 0 8 5 21 5 30 0 9 -5 22 -5 30 0 8 5 21 5 30 0 9 -5 22 -5 30
0 8 5 21 5 30 0 9 -5 22 -5 30 0 8 5 21 5 30 0 9 -5 22 -5 30 0 8 5 21 5 30 0
9 -5 22 -5 30 0 8 5 21 5 30 0 9 -5 22 -5 30 0 8 5 21 5 30 0 9 -5 22 -5 30 0
8 5 21 5 30 0 9 -5 22 -5 30 0 8 5 21 5 30 0 9 -5 22 -5 30 0 7 4 24 4 36 0
14 -6 26 -5 29 0 3 6 15 6 30 0 15 -6 27 -6 30 0 3 6 15 6 30 0 15 -6 27 -6
30 0 3 6 15 6 29 0 13 -5 27 -6 30 -3 8 8 76 9 76 1 0 -4 14 -3 30 2 16 5 30
6 30 2 0 -4 29 -7 65 -7 36 0 65 3 65 7 0 4 12 3 28 -1 15 -4 43 -4 62 -1 19
3 42 3 51 -1 8 -4 21 -4 29 1 8 5 21 5 30 0 9 -5 22 -5 30 0 8 5 21 5 30 0 9
-5 22 -5 30 0 8 5 21 5 30 0 9 -5 22 -5 30 0 8 5 21 5 30 0 9 -5 22 -5 30 0 8
5 21 5 30 0 9 -5 22 -5 30 0 8 5 21 5 30 0 9 -5 22 -5 30 0 8 5 21 5 30 0 9
-5 22 -5 30 0 8 5 21 5 30 0 9 -5 22 -5 30 0 8 5 21 5 30 0 9 -5 22 -5 30 0 8
5 21 5 30 0 9 -5 22 -5 30 0 7 4 24 4 36 0 14 -6 26 -5 29 0 3 6 15 6 30 0 15
-6 27 -6 30 0 3 6 15 6 30 0 15 -6 27 -6 30 0 3 6 15 6 29 0 13 -5 27 -6 30
-3 8 8 76 9 76 1 0 -4 13 -3 30 2 16 5 30 6 30 2 0 -4 29 -7 65 -7 36 0 65 3
65 7 0 4 12 3 28 -1 15 -4 38 -5 52 -1 14 4 35 3 47 -1 12 -5 25 -4 28 1 3 6
15 6 29 0 13 -5 27 -6 30 -3 8 8 76 9 76 1 0 -4 13 -3 30 2 17 5 30 5 30 0 0
-5 13 -5 30 0 17 5 30 5 30 0 0 -5 13 -5 30 0 17 5 30 5 30 0 0 -5 13 -5 30 0
17 5 30 5 30 0 0 -5 13 -5 30 0 16 5 30 6 30 2 0 -4 19 -6 42 -4 24 1 49 3 56
2 6 0 19 0 27 0 8 0 22 0 30 0 8 0 22 0 30 0 8 0 22 0 30 0 8 0 22 0 30 0 8 0
22 0 30 0 8 0 22 0 30 0 8 0 22 0 30 0 8 0 22 0 30 0 8 0 22 0 30 0 8 0 22 0
30 0 8 0 22 0 30 0 8 0 22 0 30 0 8 0 22 0 30 0 8 0 22 0 30 0 8 0 22 0 30 0
8 0 22 0 30 0 8 0 22 0 30 0 8 0 22 0 30 0 8 0 22 0 30 0 8 0 37 0 64 -1 27
-1 53 1 58 4 5 3 15 2 23 -3 7 -4 23 -4 36 0 12 5 25 6 28 3 8 -8 76 -9 76 -1
0 4 13 3 30 -2 16 -5 32 -5 35 0 3 4 20 4 39 0 18 -4 40 -4 48 1 7 4 20 4 28
-1 7 -4 23 -4 36 0 12 5 25 6 28 3 8 -8 76 -9 76 -1 0 4 13 3 29 -2 16 -4 32
-6 35 -3 7 8 95 7 102 0 3 -3 17 -2 30 3 14 6 26 6 29 0 3 -5 15 -6 28 -1 12
5 34 5 49 0 16 -4 28 -4 28 1 0 5 13 5 30 0 17 -5 30 -5 30 0 0 5 13 5 30 0
17 -5 30 -5 30 0 0 5 13 5 30 0 17 -5 30 -5 30 0 0 5 13 5 30 0 17 -5 30 -5
30 0 0 5 13 5 30 0 17 -5 30 -5 30 0 0 5 13 5 30 0 17 -5 30 -5 30 0 0 5 13 5
30 0 17 -5 30 -5 30 0 0 5 13 5 30 0 17 -5 30 -5 30 0 0 5 13 5 30 0 17 -5 30
-5 30 0 0 5 13 5 30 0 17 -5 30 -5 30 0 0 5 13 5 30 0 17 -5 30 -5 30 0 0 5
13 5 30 0 17 -5 30 -5 30 0 0 5 13 5 30 0 17 -5 30 -5 30 0 0 5 13 5 30 0 17
-5 30 -5 30 0 0 5 13 5 30 0 17 -5 32 -5 35 0 3 5 15 6 29 0 12 -4 29 -4 36 0
8 5 18 6 23 3 12 -8 117 -9 117 -1 0 4 13 3 30 -2 16 -5 32 -5 35 0 3 4 14 6
25 3 20 -5 20 0 20 1236 0 985 -3 1241 -12 1242 -7 1 -17 0 -23 -1 -10 -2 -20
-2 -137 1 -36 1 -71 -2 -77 -5 -6 -4 -11 -4 -11 1 0 4 -60 7 -133 5 -154 -3
-175 -3 -261 -1 -35 1 -69 -2 -75 -5 -6 -4 -11 -3 -11 2 0 5 -16 6 -38 2 -20
-3 -49 -3 -64 1 -16 4 -30 3 -33 -1 -3 -5 -18 -5 -33 -1 -15 5 -36 5 -47 1
-11 -4 -32 -4 -47 1 -15 4 -30 4 -33 -1 -3 -5 -18 -5 -33 -1 -15 5 -36 5 -47
1 -11 -4 -32 -4 -47 1 -15 4 -30 4 -33 -1 -3 -5 -18 -5 -33 -1 -15 5 -36 5
-47 1 -11 -4 -32 -4 -47 1 -16 4 -30 3 -34 -2 -3 -5 -10 -7 -15 -3 -6 3 -34 5
-62 5 -75 -2 -109 -2 -181 0 -35 1 -69 -2 -75 -5 -6 -4 -11 -4 -11 1 0 4 -60
7 -133 5 -154 -3 -175 -3 -261 -1 -35 1 -69 -2 -75 -5 -6 -4 -11 -4 -11 1 0 4
-60 7 -133 5 -154 -3 -175 -3 -261 -1 -35 1 -69 -2 -75 -5 -6 -4 -11 -3 -11 2
0 5 -16 6 -38 2 -20 -3 -49 -3 -64 1 -16 4 -30 3 -33 -1 -3 -5 -18 -5 -33 -1
-15 5 -36 5 -47 1 -11 -4 -32 -4 -47 1 -15 4 -30 4 -33 -1 -3 -5 -18 -5 -33
-1 -15 5 -36 5 -47 1 -11 -4 -32 -4 -47 1 -15 4 -30 4 -33 -1 -3 -5 -18 -5
-33 -1 -15 5 -36 5 -47 1 -11 -4 -32 -4 -47 1 -16 4 -30 3 -34 -2 -3 -5 -10
-7 -15 -3 -6 3 -34 5 -62 5 -75 -2 -109 -2 -181 0 -35 1 -69 -2 -75 -5 -6 -4
-11 -4 -11 1 0 4 -60 7 -133 5 -154 -3 -175 -3 -261 -1 -35 1 -69 -2 -75 -5
-6 -4 -11 -4 -11 1 0 4 -60 7 -133 5 -154 -3 -175 -3 -261 -1 -35 1 -69 -2
-75 -5 -6 -4 -11 -3 -11 2 0 5 -16 6 -38 2 -20 -3 -49 -3 -64 1 -16 4 -30 3
-33 -1 -3 -5 -18 -5 -33 -1 -15 5 -36 5 -47 1 -11 -4 -32 -4 -47 1 -15 4 -30
4 -33 -1 -3 -5 -18 -5 -33 -1 -15 5 -36 5 -47 1 -11 -4 -32 -4 -47 1 -15 4
-30 4 -33 -1 -3 -5 -18 -5 -33 -1 -15 5 -36 5 -47 1 -11 -4 -32 -4 -47 1 -16
4 -30 3 -34 -2 -3 -5 -10 -7 -15 -3 -6 3 -34 5 -62 5 -75 -2 -109 -2 -181 0
-35 1 -69 -2 -75 -5 -6 -4 -11 -4 -11 1 0 4 -60 7 -133 5 -154 -3 -175 -3
-261 -1 -35 1 -69 -2 -75 -5 -6 -4 -11 -4 -11 1 0 4 -60 7 -133 5 -154 -3
-175 -3 -261 -1 -35 1 -69 -2 -75 -5 -6 -4 -11 -3 -11 2 0 5 -16 6 -38 2 -20
-3 -49 -3 -64 1 -16 4 -30 3 -33 -1 -3 -5 -18 -5 -33 -1 -15 5 -36 5 -47 1
-11 -4 -32 -4 -47 1 -15 4 -30 4 -33 -1 -3 -5 -18 -5 -33 -1 -15 5 -36 5 -47
1 -11 -4 -32 -4 -47 1 -15 4 -30 4 -33 -1 -3 -5 -18 -5 -33 -1 -15 5 -36 5
-47 1 -11 -4 -32 -4 -47 1 -16 4 -30 3 -34 -2 -3 -5 -10 -7 -15 -3 -6 3 -34 5
-62 5 -75 -2 -109 -2 -181 0 -35 1 -69 -2 -75 -5 -6 -4 -11 -4 -11 1 0 4 -60
7 -133 5 -154 -3 -175 -3 -261 -1 -35 1 -69 -2 -75 -5 -6 -4 -11 -4 -11 1 0 4
-60 7 -133 5 -154 -3 -175 -3 -261 -1 -35 1 -69 -2 -75 -5 -6 -4 -11 -3 -11 2
0 5 -16 6 -38 2 -20 -3 -49 -3 -64 1 -16 4 -30 3 -33 -1 -3 -5 -18 -5 -33 -1
-15 5 -36 5 -47 1 -11 -4 -32 -4 -47 1 -15 4 -30 4 -33 -1 -3 -5 -18 -5 -33
-1 -15 5 -36 5 -47 1 -11 -4 -32 -4 -47 1 -15 4 -30 4 -33 -1 -3 -5 -18 -5
-33 -1 -15 5 -36 5 -47 1 -11 -4 -32 -4 -47 1 -16 4 -30 3 -34 -2 -3 -5 -10
-7 -15 -3 -6 3 -34 5 -62 5 -75 -2 -109 -2 -181 0 -35 1 -69 -2 -75 -5 -6 -4
-11 -4 -11 1 0 4 -60 7 -133 5 -154 -3 -175 -3 -261 -1 -35 1 -69 -2 -75 -5
-6 -4 -11 -4 -11 1 0 4 -60 7 -133 5 -154 -3 -175 -3 -261 -1 -35 1 -69 -2
-75 -5 -6 -4 -11 -3 -11 2 0 5 -16 6 -38 2 -20 -3 -49 -3 -64 1 -16 4 -30 3
-33 -1 -3 -5 -18 -5 -33 -1 -15 5 -36 5 -47 1 -11 -4 -32 -4 -47 1 -15 4 -30
4 -33 -1 -3 -5 -18 -5 -33 -1 -15 5 -36 5 -47 1 -11 -4 -32 -4 -47 1 -15 4
-30 4 -33 -1 -3 -5 -18 -5 -33 -1 -15 5 -36 5 -47 1 -11 -4 -32 -4 -47 1 -16
4 -30 3 -34 -2 -3 -5 -10 -7 -15 -3 -6 3 -34 5 -62 5 -75 -2 -109 -2 -181 0
-35 1 -69 -2 -75 -5 -6 -4 -11 -4 -11 1 0 4 -60 7 -133 5 -154 -3 -175 -3
-261 -1 -35 1 -69 -2 -75 -5 -6 -4 -11 -4 -11 1 0 4 -60 7 -133 5 -154 -3
-175 -3 -261 -1 -35 1 -69 -2 -75 -5 -6 -4 -11 -3 -11 2 0 5 -16 6 -38 2 -20
-3 -49 -3 -64 1 -16 4 -30 3 -33 -1 -3 -5 -18 -5 -33 -1 -15 5 -36 5 -47 1
-11 -4 -32 -4 -47 1 -15 4 -30 4 -33 -1 -3 -5 -18 -5 -33 -1 -15 5 -36 5 -47
1 -11 -4 -32 -4 -47 1 -15 4 -30 4 -33 -1 -3 -5 -18 -5 -33 -1 -15 5 -36 5
-47 1 -11 -4 -32 -4 -47 1 -16 4 -30 3 -34 -2 -3 -5 -10 -7 -15 -3 -6 3 -34 5
-62 5 -75 -2 -109 -2 -181 0 -35 1 -69 -2 -75 -5 -6 -4 -11 -4 -11 1 0 4 -60
7 -133 5 -154 -3 -175 -3 -261 -1 -35 1 -69 -2 -75 -5 -6 -4 -11 -4 -11 1 0 4
-60 7 -133 5 -154 -3 -175 -3 -261 -1 -35 1 -69 -2 -75 -5 -6 -4 -11 -3 -11 2
0 5 -16 6 -38 2 -20 -3 -49 -3 -64 1 -16 4 -30 3 -33 -1 -3 -5 -18 -5 -33 -1
-15 5 -36 5 -47 1 -11 -4 -32 -4 -47 1 -15 4 -30 4 -33 -1 -3 -5 -18 -5 -33
-1 -15 5 -36 5 -47 1 -11 -4 -32 -4 -47 1 -15 4 -30 4 -33 -1 -3 -5 -18 -5
-33 -1 -15 5 -36 5 -47 1 -11 -4 -32 -4 -47 1 -16 4 -30 3 -34 -2 -3 -5 -10
-7 -15 -3 -6 3 -34 5 -62 5 -75 -2 -109 -2 -181 0 -35 1 -69 -2 -75 -5 -6 -4
-11 -4 -11 1 0 4 -60 7 -133 5 -154 -3 -175 -3 -261 -1 -35 1 -69 -2 -75 -5
-6 -4 -11 -4 -11 1 0 4 -60 7 -133 5 -154 -3 -175 -3 -261 -1 -35 1 -69 -2
-74 -5 -6 -3 -12 -3 -14 1 -1 5 -15 7 -31 5z"/>
</g>
</svg>
